<svg viewBox="0 0 135.467 135.467" xml:space="preserve" xmlns="http://www.w3.org/2000/svg"
style="fill:none;stroke:currentColor;stroke-width:2;stroke-linecap:round;stroke-linejoin:round;">
  <path  d="M38.279 60.614c5.753-6.71 12.698-8.825 19.844-7.614m38.554 7.614c-5.753-6.71-12.699-8.825-19.844-7.614" transform="translate(.256 13.503)" />
  <path  d="M91.574 104.31c0 6.024-10.357-3.242-23.934-3.242-13.577 0-23.747 9.445-23.747 3.42 0-6.026 9.494-17.888 23.072-17.888 13.577 0 24.609 11.684 24.609 17.71z" />
  <path  d="M15.741 52.016s-17.755-.214-10.749-8.741c7.006-8.528 10.75 8.74 10.75 8.74zm103.984 0s17.756-.214 10.75-8.741c-7.007-8.528-10.75 8.74-10.75 8.74z" />
  <path  d="M20.118 93.524c-.77.114-1.558.172-2.36.172-8.896 0-16.107-7.233-16.107-16.156 0-8.923 7.211-16.157 16.108-16.157.596 0 1.185.033 1.765.096m95.824 32.045c.77.114 1.558.172 2.36.172 8.896 0 16.108-7.233 16.108-16.156 0-8.923-7.212-16.157-16.108-16.157-.572 0-1.137.03-1.694.089m-.54 32.076a50.8 49.212 0 0 1-47.74 32.394 50.8 49.212 0 0 1-47.742-32.394m-.55-32.091a50.8 49.212 0 0 1 48.291-33.94 50.8 49.212 0 0 1 48.296 33.952" transform="translate(0 -2.117)" />
  <path style="stroke-width:8.7" transform="matrix(-.07923 -.19997 .23281 -.06805 55.774 99.986)" d="M243.651 133.148c-.934-6.3 6.765-9.397 11.827-8.552 11.096 1.851 15.448 14.794 12.492 24.5-4.988 16.38-24.475 22.304-39.438 16.593-22.172-8.463-29.834-35.418-20.895-56.156 12.248-28.415 47.408-37.946 74.373-25.398 28.248 13.145 42.325 45.542 36.334 75.527" />
</svg>
