<svg viewBox="0 0 134.165 119.946" xml:space="preserve" xmlns="http://www.w3.org/2000/svg" style="fill:none;stroke:currentColor;stroke-width:2;stroke-linecap:round;stroke-linejoin:round;">
  <path d="M112.487 1a255.2 255.2 0 0 0-3.394.018c-1.09.034-1.82.074-2.187.12-.976.138-1.54.677-1.689 1.619-.149.942.236 1.918 1.155 2.929.494.562 1.774.872 3.84.93 2.08.057 3.876.028 5.392-.087a51.943 51.943 0 0 1-4.237 5.84c-1.573 1.883-3.181 3.474-4.823 4.772-.184.149-.385.298-.603.447-.207.138-.476.385-.81.741-.562 1.034-.758 1.981-.585 2.842.183.862.608 1.47 1.274 1.826.448.253 1.08.471 1.895.655 1.78.39 3.893.625 6.339.706 2.458.08 4.645.149 6.563.206.482-.114.982-.229 1.499-.344.516-.115 1.005-.43 1.464-.947.85-1.218 1.108-2.372.775-3.463-.333-1.102-.993-1.636-1.981-1.602a234.56 234.56 0 0 1-6.58-.206c1.516-1.562 3.032-3.485 4.547-5.77 1.528-2.286 2.561-4.146 3.101-5.582.368-1.01.51-1.832.43-2.463-.068-.632-.55-1.27-1.446-1.912-.276-.184-.511-.333-.706-.448-.976-.551-1.872-.804-2.687-.758-.816.035-1.792.035-2.929 0a87.006 87.006 0 0 0-1.774-.017A96.054 96.054 0 0 1 112.487 1zm7.885 27.005c-1.094 0-1.949.004-2.565.012-.825.027-1.376.057-1.654.092-.738.104-1.163.512-1.276 1.224-.113.711.178 1.45.873 2.213.373.425 1.34.66 2.903.703 1.571.044 2.93.022 4.075-.065a39.26 39.26 0 0 1-3.202 4.414c-1.19 1.423-2.405 2.625-3.646 3.606-.14.113-.29.226-.456.339-.156.104-.36.29-.612.56-.425.78-.572 1.497-.442 2.148.139.651.46 1.11.963 1.38.339.19.816.356 1.432.495 1.346.295 2.943.473 4.791.534 1.858.06 3.512.112 4.961.156.365-.087.742-.174 1.133-.26.39-.087.76-.326 1.106-.717.643-.92.838-1.792.586-2.617-.251-.833-.75-1.237-1.497-1.21-2.109-.044-3.767-.096-4.973-.157 1.145-1.18 2.291-2.634 3.437-4.362 1.155-1.727 1.936-3.133 2.344-4.218.277-.764.386-1.384.325-1.862-.052-.477-.417-.96-1.094-1.445a11.534 11.534 0 0 0-.534-.339c-.737-.416-1.414-.607-2.03-.572-.617.026-1.355.026-2.214 0a65.712 65.712 0 0 0-1.34-.013 72.746 72.746 0 0 1-1.394-.04z" />
  <path d="M60.816 67.05c0 6.333-4.913 11.481-11.005 11.533-6.092.052-11.086-5.012-11.186-11.344m34.725-.19c0 6.334 4.912 11.482 11.004 11.534 6.093.052 11.086-5.012 11.186-11.344" />
  <path d="M69.083 94.124a2 2 0 0 1-2 2 2 2 0 0 1-2-2 2 2 0 0 1 2-2 2 2 0 0 1 2 2z" />
  <path d="M66.818 37.322c-1.393.616-2.724-.713-2.928-1.782-.448-2.345 2.22-4.096 4.714-4.166 4.21-.117 7.132 3.377 6.988 6.758-.214 5.01-5.882 8.376-11.419 8-7.585-.516-12.59-6.899-11.805-13.145.823-6.543 7.25-11.563 14.705-12.405" />
  <path d="M19.468 86.528c-.77.114-1.558.173-2.36.173C8.212 86.7 1 79.467 1 70.544s7.212-16.157 16.108-16.157c.597 0 1.186.033 1.766.096m95.824 32.045c.77.114 1.558.173 2.36.173 8.896 0 16.107-7.234 16.107-16.157s-7.211-16.157-16.108-16.157c-.572 0-1.137.03-1.693.089m-.54 32.076a50.8 49.212 0 0 1-47.741 32.394A50.8 49.212 0 0 1 19.34 86.552m-.55-32.091a50.8 49.212 0 0 1 48.292-33.94 50.8 49.212 0 0 1 48.296 33.952" />
</svg>
