<svg viewBox="0 0 135.165 135.425" xml:space="preserve" xmlns="http://www.w3.org/2000/svg" style="opacity:1;fill:none;stroke:currentColor;stroke-width:3;stroke-linecap:round;stroke-linejoin:round;">
  <path d="M20.118 93.524c-.77.114-1.558.172-2.36.172-8.896 0-16.107-7.233-16.107-16.156 0-8.923 7.211-16.157 16.108-16.157.596 0 1.185.033 1.765.096m95.824 32.045c.77.114 1.558.172 2.36.172 8.896 0 16.108-7.233 16.108-16.156 0-8.923-7.212-16.157-16.108-16.157-.572 0-1.137.03-1.694.089m-.54 32.076a50.8 49.212 0 0 1-47.74 32.394 50.8 49.212 0 0 1-47.742-32.394m-.55-32.091a50.8 49.212 0 0 1 48.291-33.94 50.8 49.212 0 0 1 48.296 33.952" transform="translate(-.15 -26.017)" />
  <path style="stroke-width:13;" transform="matrix(-.07923 -.19997 .23281 -.06805 55.623 76.086)" d="M243.651 133.148c-.934-6.3 6.765-9.397 11.827-8.552 11.096 1.851 15.448 14.794 12.492 24.5-4.988 16.38-24.475 22.304-39.438 16.593-22.172-8.463-29.834-35.418-20.895-56.156 12.248-28.415 47.408-37.946 74.373-25.398 28.248 13.145 42.325 45.542 36.334 75.527" />
  <path d="M35.16 61.309c7.08-3.082 17.96-2.582 22.709 7.61-3.995-2.483-11.738-5.905-17.672-.172m60.11-7.438c-7.081-3.082-17.96-2.582-22.709 7.61 3.995-2.483 11.737-5.905 17.672-.172M67.732 87.344c-5.145 0-14.097 2.434-18.173 6.207.588 3.373 8.767 12.71 18.173 12.896 9.407.187 17.588-9.523 18.176-12.896-4.077-3.773-13.03-6.207-18.176-6.207z" transform="translate(-.15 -23.9)" />
</svg>
